<?xml version="1.0" encoding="UTF-8"?>
<svg version="1.1" xmlns="http://www.w3.org/2000/svg" width="612" height="365">
<path d="M0 0 C11.55296467 9.55567248 17.54599062 22.63861406 19.6171875 37.21875 C20.885625 37.20134766 20.885625 37.20134766 22.1796875 37.18359375 C28.43279368 37.13385313 34.43724681 37.24934754 40.6171875 38.21875 C40.83246094 37.435 41.04773438 36.65125 41.26953125 35.84375 C43.07400076 30.98998853 45.58434579 26.68904117 48.1796875 22.21875 C48.71400391 21.29191406 49.24832031 20.36507812 49.79882812 19.41015625 C65.62408377 -7.85390425 65.62408377 -7.85390425 72.6171875 -10.78125 C76.59916804 -11.0875562 78.77449022 -10.4385824 81.92578125 -7.98046875 C88.39669099 -1.82832303 93.62235366 5.21638396 93.9296875 14.46875 C93.76414425 23.06320378 87.45836426 29.22522022 82.4453125 35.7421875 C80.5182056 37.83980516 80.5182056 37.83980516 80.6171875 39.21875 C84.5771875 39.54875 88.5371875 39.87875 92.6171875 40.21875 C93.2771875 38.56875 93.9371875 36.91875 94.6171875 35.21875 C100.06066391 24.21153162 106.19048932 13.4809564 112.9296875 3.21875 C113.39616699 2.4966333 113.86264648 1.7745166 114.34326172 1.03051758 C117.45427036 -3.59328883 120.81253606 -7.8306113 125.6171875 -10.78125 C129.29064908 -11.46860155 130.80782859 -11.26899174 133.99609375 -9.34765625 C140.95282314 -2.96339476 145.86413637 3.75227387 147.6171875 13.21875 C147.82322014 23.93244706 138.09773658 33.4589237 131.6171875 41.21875 C138.46128431 42.07304332 145.23092194 42.46430295 152.12280273 42.66772461 C153.24533133 42.70370915 154.36785992 42.7396937 155.52440453 42.77676868 C159.24142997 42.89501034 162.9585926 43.00810836 166.67578125 43.12109375 C169.3107742 43.20368457 171.94575839 43.28655576 174.58073425 43.36968994 C180.89476054 43.56826099 187.20890362 43.76284355 193.52309889 43.95595896 C198.60152834 44.11138114 203.67990013 44.26858108 208.75823975 44.4269104 C245.80305911 45.5815372 282.84868754 46.70052745 319.90014648 47.62280273 C326.06034305 47.77636531 332.22008565 47.942104 338.3795166 48.1239624 C340.51833767 48.18657955 342.65725727 48.24592688 344.79626465 48.30181885 C347.7033878 48.38103028 350.6092814 48.47845885 353.515625 48.58203125 C354.33455231 48.60146286 355.15347961 48.62089447 355.9972229 48.64091492 C361.41732136 48.86279803 365.68784858 49.8939346 370.6171875 52.21875 C370.9471875 53.20875 371.2771875 54.19875 371.6171875 55.21875 C363.99731475 61.81183138 350.77382244 60.41048106 341.19946289 60.73583984 C340.01234994 60.77760031 338.82523699 60.81936077 337.60215092 60.8623867 C325.35773552 61.28124394 313.11272506 61.59544273 300.86328125 61.8203125 C299.66039396 61.84303852 298.45750668 61.86576454 297.21816826 61.88917923 C277.33082279 62.24777955 257.46496088 62.17667533 237.57675636 61.94740033 C231.7490215 61.8815121 225.92134047 61.83296524 220.09335327 61.79595947 C219.26479848 61.79067096 218.43624368 61.78538246 217.58258116 61.77993369 C213.3799874 61.75373984 209.17738722 61.72982263 204.9747715 61.70745468 C196.38263711 61.65859298 187.79324969 61.57164229 179.20239258 61.41308594 C171.52991507 61.27170849 163.86011641 61.19766696 156.18629068 61.20270598 C152.17385644 61.20292347 148.16811893 61.17092327 144.15721321 61.05524826 C128.39430315 59.94523192 128.39430315 59.94523192 114.2601738 65.05197906 C110.48426591 69.48158748 108.34310415 74.34026599 106.49474907 79.81405544 C105.13157672 83.54942085 103.1370336 86.87038351 101.1171875 90.28125 C88.46274322 114.01084383 64.47954593 159.31174472 71.3671875 187.28125 C71.7796875 188.250625 72.1921875 189.22 72.6171875 190.21875 C75.58454176 191.55308737 75.58454176 191.55308737 78.3671875 190.21875 C91.10434917 182.38049666 97.33641669 167.62745419 102.6171875 154.21875 C110.95086407 133.95189696 121.29880147 115.00024433 141.890625 105.12890625 C149.16774793 102.27848084 157.5911781 101.97795834 165.0546875 104.34375 C169.10687516 106.12502416 171.16105122 108.57175976 173.6171875 112.21875 C174.4296875 114.59375 174.4296875 114.59375 174.6171875 116.21875 C175.2771875 116.21875 175.9371875 116.21875 176.6171875 116.21875 C176.6996875 115.538125 176.7821875 114.8575 176.8671875 114.15625 C177.85248525 110.29716713 179.48015384 107.58619698 181.6171875 104.21875 C184.4448471 102.8049202 186.47557971 102.970929 189.6171875 103.21875 C195.7463236 106.05089295 203.74306501 110.80351458 206.6171875 117.21875 C207.18456817 123.24171402 206.19192655 127.1143363 203.2421875 132.40625 C202.50699097 133.8022691 201.77403358 135.19946904 201.04296875 136.59765625 C200.65061035 137.33902832 200.25825195 138.08040039 199.85400391 138.84423828 C186.81109531 162.34042809 186.81109531 162.34042809 182.6171875 188.21875 C183.64140011 190.32813785 183.64140011 190.32813785 185.6171875 191.21875 C189.52946649 191.21875 192.0880958 189.54809447 194.95703125 186.97265625 C205.06585695 176.29297922 211.72916066 162.86376514 217.11352539 149.34326172 C221.01187988 139.60572195 225.91289279 131.28845026 232.6171875 123.21875 C233.32294922 122.29449219 233.32294922 122.29449219 234.04296875 121.3515625 C240.10002085 113.67360913 249.0351665 107.44620743 258.6171875 105.21875 C266.73196547 104.38403795 274.949379 103.89137723 281.6171875 109.21875 C284.19385334 111.92755255 285.43823678 113.68189783 286.6171875 117.21875 C287.21466797 116.18814453 287.21466797 116.18814453 287.82421875 115.13671875 C288.35402344 114.23566406 288.88382812 113.33460938 289.4296875 112.40625 C289.95175781 111.51292969 290.47382813 110.61960937 291.01171875 109.69921875 C293.70472885 105.53848539 293.70472885 105.53848539 295.6171875 104.21875 C303.10665457 104.67302915 310.93848823 110.72533977 316.328125 115.66796875 C318.70348447 118.52559817 318.80004727 120.56155454 318.6171875 124.21875 C317.14369089 130.11273643 314.02020088 135.37662894 311.16162109 140.68823242 C303.56744941 154.80090191 296.70548339 169.39123358 293.6171875 185.21875 C294.40480469 184.48011719 295.19242187 183.74148437 296.00390625 182.98046875 C301.84203107 177.5319138 307.73474788 172.15888842 313.8046875 166.96875 C314.35664795 166.49139404 314.9086084 166.01403809 315.47729492 165.5222168 C319.37872406 162.21875 319.37872406 162.21875 321.6171875 162.21875 C321.72804688 161.07664063 321.83890625 159.93453125 321.953125 158.7578125 C322.53203941 154.16885679 323.7543144 149.96276464 325.2421875 145.59375 C325.50725098 144.81322266 325.77231445 144.03269531 326.04541016 143.22851562 C330.10275793 131.63609343 335.34951193 121.40871607 343.6171875 112.21875 C344.18179687 111.56132812 344.74640625 110.90390625 345.328125 110.2265625 C350.09325639 105.01400094 355.94451975 100.93993345 363.046875 99.84375 C366.75674734 99.74382078 369.32031319 100.1023287 372.8046875 101.46875 C375.78596436 102.61601666 375.78596436 102.61601666 378.8046875 100.40625 C380.196875 99.3234375 380.196875 99.3234375 381.6171875 98.21875 C387.01638607 96.41901714 392.55276015 96.51762373 397.9296875 98.34375 C404.16052811 102.6908481 406.39345382 107.03758301 408.1171875 114.3046875 C409.731215 123.71144153 408.14266285 132.88883378 406.6171875 142.21875 C416.23092405 139.8981929 424.97014777 133.97893505 431.86328125 126.91796875 C433.6171875 125.21875 433.6171875 125.21875 436.3671875 124.96875 C437.1096875 125.05125 437.8521875 125.13375 438.6171875 125.21875 C439.9359325 130.97327364 439.69860561 135.0762509 436.6171875 140.21875 C429.37100084 148.86864822 416.49185107 155.60277725 405.6171875 158.21875 C404.81458496 158.28666748 404.01198242 158.35458496 403.18505859 158.42456055 C400.44097732 158.9934736 400.44097732 158.9934736 398.9831543 161.45263672 C398.51562744 162.42475098 398.04810059 163.39686523 397.56640625 164.3984375 C396.76493164 166.01105469 396.76493164 166.01105469 395.94726562 167.65625 C395.40521484 168.790625 394.86316406 169.925 394.3046875 171.09375 C385.63008921 189.01211828 373.14870585 208.86880831 353.6171875 216.21875 C345.81848137 218.19571594 338.54849164 217.13531898 331.609375 213.03125 C324.10245883 207.31169482 320.9687269 198.27092089 319.6171875 189.21875 C319.22402715 186.21975943 318.90405043 183.23081081 318.6171875 180.21875 C310.07413892 187.73585076 310.07413892 187.73585076 302.38671875 196.10546875 C301.04921081 197.70280164 299.63637927 199.23746386 298.19140625 200.73828125 C294.07946819 205.20833522 291.03245406 208.59211732 290.9296875 214.84375 C291.09632817 216.97456516 291.33129186 219.10063621 291.6171875 221.21875 C291.95209632 223.84356388 292.28649322 226.46840485 292.6171875 229.09375 C292.75350586 230.15891846 292.75350586 230.15891846 292.89257812 231.24560547 C295.786282 255.37212557 294.61396225 284.27136625 280.43359375 304.9140625 C277.81256395 308.23967021 275.11679498 310.84237898 271.6171875 313.21875 C271.04742187 313.62996094 270.47765625 314.04117187 269.890625 314.46484375 C263.64938908 318.30253988 256.70874706 318.02202734 249.6171875 317.21875 C243.82707725 315.66753135 239.31782278 313.00780742 235.6171875 308.21875 C229.65246095 296.49497712 232.72369167 283.20313278 236.6171875 271.21875 C243.16477967 253.49901558 252.5697781 236.38319975 263.828125 221.24609375 C265.79272209 217.92172095 266.07884869 216.27493215 265.9296875 212.46875 C265.89488281 211.4375 265.86007812 210.40625 265.82421875 209.34375 C265.53337238 204.95361618 265.15818033 200.58533501 264.6171875 196.21875 C263.58271484 197.41371094 263.58271484 197.41371094 262.52734375 198.6328125 C255.0274705 207.15173405 247.29256843 215.14794764 235.6171875 217.21875 C228.11880884 217.61529887 221.85954408 215.27341831 215.6171875 211.21875 C210.84465905 206.56859407 208.79938509 200.67111814 207.6171875 194.21875 C206.86695313 195.14816406 206.11671875 196.07757813 205.34375 197.03515625 C192.19450853 213.02630966 192.19450853 213.02630966 182.6171875 216.21875 C174.75261896 216.82832901 167.04110237 217.39040805 160.6171875 212.21875 C155.96573121 207.19014861 155.01005867 200.73991958 153.6171875 194.21875 C152.60011719 195.39630859 152.60011719 195.39630859 151.5625 196.59765625 C144.18780757 204.98278165 136.09812114 214.17452129 124.3828125 215.46484375 C116.54044651 215.86670412 110.37674179 213.50717435 103.7421875 209.46875 C99.66538044 205.15213076 97.77138022 199.67540557 95.6171875 194.21875 C95.0603125 194.93160156 94.5034375 195.64445313 93.9296875 196.37890625 C81.24817913 212.29505611 81.24817913 212.29505611 71.6171875 215.21875 C65.39409118 215.91020515 60.68062354 215.06522287 55.6171875 211.21875 C50.39660748 205.34897868 47.83029959 197.338917 47.4296875 189.59375 C47.4915625 188.81 47.5534375 188.02625 47.6171875 187.21875 C46.9571875 187.21875 46.2971875 187.21875 45.6171875 187.21875 C45.22273438 188.32089844 45.22273438 188.32089844 44.8203125 189.4453125 C42.86553837 193.95144767 39.70328765 197.43599855 36.6171875 201.21875 C36.12992188 201.85425781 35.64265625 202.48976562 35.140625 203.14453125 C30.72106939 208.71218371 24.79458912 213.92025388 17.6171875 215.21875 C11.4842925 215.72144631 7.44023323 215.20454329 2.6171875 211.21875 C-6.46229756 201.72096888 -7.30304963 187.05701132 -7.6953125 174.59375 C-6.81299146 135.77162445 10.27125852 96.39639427 27.6171875 62.21875 C24.3171875 62.21875 21.0171875 62.21875 17.6171875 62.21875 C17.38 63.47429687 17.1428125 64.72984375 16.8984375 66.0234375 C15.61808989 71.75142621 13.46589297 76.97932287 11.1171875 82.34375 C10.45722778 83.85183228 10.45722778 83.85183228 9.78393555 85.39038086 C4.75872414 96.55086904 -1.94428512 111.39839368 -14.0078125 116.28125 C-17.22623038 116.19655479 -18.74587566 115.03939684 -21.3828125 113.21875 C-27.66484874 106.21839361 -31.33571143 97.9778059 -33.0078125 88.78125 C-31.68894699 81.26371661 -27.36208712 74.71610635 -23.3203125 68.34375 C-17.07944002 58.07915711 -12.85876287 45.75494627 -14.79296875 33.65234375 C-16.72398972 26.81861086 -20.53227916 21.95142713 -26.5703125 18.28125 C-33.4365113 16.36771919 -39.74080124 16.00369111 -46.2578125 19.21875 C-55.74751189 25.33133217 -58.26748963 37.22309563 -61.00390625 47.56640625 C-64.63467431 72.98178269 -56.13143767 93.77912576 -44.06201172 115.55249023 C-30.7157228 139.82654373 -15.15008338 170.05733367 -23.3515625 198.3828125 C-27.74245645 210.45777085 -36.12104563 221.71921848 -47.3828125 228.21875 C-66.93762147 237.23486039 -91.5588988 236.33907156 -111.88671875 230.15234375 C-126.64788662 224.44016768 -138.49971783 214.23198229 -144.94140625 199.73046875 C-150.31441844 186.64012197 -152.31862861 169.63386984 -147.8203125 155.90625 C-142.93599629 145.21216819 -134.63186482 137.43420001 -123.8046875 132.97265625 C-116.4671613 130.68855535 -109.61022671 130.72200691 -102.3828125 133.21875 C-100.3828125 135.21875 -100.3828125 135.21875 -99.6953125 139.03125 C-99.78332218 144.53185473 -102.59652445 147.84634841 -105.81176758 152.11816406 C-113.87588332 163.01862396 -116.21730822 174.92642525 -115.3828125 188.21875 C-113.79841844 195.62812221 -109.46215135 202.08221418 -103.6171875 206.828125 C-95.5695159 211.83681571 -85.69062505 213.44149213 -76.3828125 212.21875 C-68.13011541 210.2496078 -60.4907583 206.85241465 -55.6640625 199.65625 C-49.44250384 188.18906346 -46.86148857 176.1894401 -50.0703125 163.5 C-54.81976568 147.7250305 -63.7178726 133.68703057 -73.1171875 120.31640625 C-88.45845418 98.47959893 -98.76814204 76.33635429 -94.2578125 48.90625 C-90.85221515 30.20881192 -81.16060665 11.05634182 -65.6953125 -0.46875 C-44.91354834 -14.28121237 -20.04824666 -14.98688603 0 0 Z M56.6171875 72.21875 C56.100354 73.08387207 55.58352051 73.94899414 55.05102539 74.84033203 C37.83394476 104.15169499 12.89391283 150.74965974 16.6171875 186.21875 C17.7525548 189.20119913 17.7525548 189.20119913 19.6171875 191.21875 C22.68212795 192.61046843 22.68212795 192.61046843 25.8046875 190.84375 C35.81767485 184.58039599 44.96112223 171.37738488 48.25341797 160.02490234 C49.02288457 156.34488072 49.47527861 152.63795663 49.9453125 148.91015625 C53.49521684 121.57016717 67.05577239 94.66973383 78.46313477 69.8046875 C79.58134069 67.29907354 80.61632422 64.77321361 81.6171875 62.21875 C78.75661292 61.94631433 75.92204177 61.75019178 73.0546875 61.59375 C72.25482422 61.50996094 71.45496094 61.42617187 70.63085938 61.33984375 C62.55670981 61.01028663 60.2907859 65.66205323 56.6171875 72.21875 Z M382.0546875 120.53125 C378.70030937 124.22966692 378.26828168 127.14469825 378.33203125 132.08984375 C378.94422462 136.66032847 381.35651257 140.0693111 384.7421875 143.15625 C386.54800865 144.38308752 386.54800865 144.38308752 388.6171875 144.21875 C391.5166199 133.83910322 391.5166199 133.83910322 391.6171875 123.21875 C389.40805207 120.17399698 389.40805207 120.17399698 386.6171875 118.21875 C384.28937265 117.99542849 384.28937265 117.99542849 382.0546875 120.53125 Z M144.1171875 138.09375 C134.33246605 152.59017823 121.85932998 174.28860329 123.6171875 192.21875 C124.50048393 194.75833234 124.50048393 194.75833234 126.6171875 196.21875 C130.15786756 196.98242609 132.42337567 196.9445876 135.5703125 195.03125 C150.06382188 183.16254941 162.96842054 158.95159588 165.6171875 140.21875 C165.75212783 138.53459092 165.83585645 136.84551583 165.8671875 135.15625 C165.90585937 133.90134766 165.90585937 133.90134766 165.9453125 132.62109375 C165.54384245 129.68175948 164.65181472 128.34957709 162.6171875 126.21875 C154.11584878 124.24169448 148.54262389 131.96212127 144.1171875 138.09375 Z M260.8046875 133.46875 C247.98447026 146.8516867 235.55739787 171.30020419 235.4296875 189.84375 C235.41550781 190.78476563 235.40132813 191.72578125 235.38671875 192.6953125 C235.43758043 195.46579023 235.43758043 195.46579023 237.6171875 198.21875 C241.23862015 198.79488701 243.20831939 198.42318405 246.4921875 196.78125 C261.70327789 185.32354555 273.47402534 161.71612022 276.6171875 143.21875 C277.51169217 136.58825444 277.51169217 136.58825444 275.52734375 130.41796875 C274.07822344 128.84220881 274.07822344 128.84220881 271.6171875 127.21875 C267.47752584 127.21875 263.68156971 130.82201837 260.8046875 133.46875 Z M363.6171875 129.21875 C353.25180474 143.8720924 343.37079685 167.63803177 343.3046875 185.90625 C343.28792969 186.98261719 343.27117187 188.05898437 343.25390625 189.16796875 C343.66509674 192.62108462 344.54589526 194.44894235 346.6171875 197.21875 C349.38055772 199.44719642 349.38055772 199.44719642 352.2421875 199.28125 C363.4810286 195.74309632 370.66588995 184.7083481 375.93457031 174.72167969 C378.64589096 169.28897409 381.17875689 163.77879991 383.6171875 158.21875 C381.66583331 156.72807185 379.72307681 155.28632549 377.65234375 153.96484375 C370.09851785 148.95388993 367.09771942 142.32396061 365.3046875 133.59375 C365.06054412 132.13784908 364.82552254 130.68020475 364.6171875 129.21875 C364.2871875 129.21875 363.9571875 129.21875 363.6171875 129.21875 Z M269.6171875 241.21875 C264.31274356 249.5597959 259.53649013 258.06130836 255.2421875 266.96875 C254.61787842 268.24335083 254.61787842 268.24335083 253.98095703 269.54370117 C249.83996795 278.29168808 245.71688559 288.25097635 248.3671875 297.96875 C249.86514232 300.66506868 250.86347976 301.80468386 253.6171875 303.21875 C257.83524963 303.76553583 260.02745506 303.53096129 263.8046875 301.53125 C270.82711402 295.75725486 273.46331689 289.06509137 274.6171875 280.21875 C275.23389086 270.09403758 274.89603784 260.03968585 273.2421875 250.03125 C273.11618164 249.25942383 272.99017578 248.48759766 272.86035156 247.69238281 C272.52380888 245.85188879 272.08046855 244.03149651 271.6171875 242.21875 C270.9571875 241.88875 270.2971875 241.55875 269.6171875 241.21875 Z " fill="#FEFEFE" transform="translate(160.3828125,34.78125)"/>
</svg>
