<?xml version="1.0" encoding="UTF-8"?>
<svg version="1.1" xmlns="http://www.w3.org/2000/svg" width="619" height="383">
<path d="M0 0 C8.74081735 8.14352816 13.77839123 18.37406184 16.59375 29.93359375 C16.59375 31.58359375 16.59375 33.23359375 16.59375 34.93359375 C23.52375 34.93359375 30.45375 34.93359375 37.59375 34.93359375 C38.66689453 32.89945313 38.66689453 32.89945313 39.76171875 30.82421875 C44.99999362 20.99656441 50.39728072 11.31405145 56.40625 1.93359375 C56.92018311 1.11665039 57.43411621 0.29970703 57.96362305 -0.54199219 C61.16059511 -5.44213897 64.5005235 -10.00989256 69.59375 -13.06640625 C73.28682152 -13.76200336 74.78640035 -13.56486843 77.97265625 -11.59765625 C84.65700051 -5.37966159 89.97204575 0.68987954 91.59375 9.93359375 C91.79930831 17.42605814 89.2140356 21.73569577 84.53125 27.37109375 C83.41165321 28.76264709 82.29557211 30.15703883 81.18359375 31.5546875 C80.68722412 32.15724365 80.19085449 32.7597998 79.67944336 33.38061523 C78.40276022 34.89097699 78.40276022 34.89097699 78.59375 36.93359375 C82.22375 36.93359375 85.85375 36.93359375 89.59375 36.93359375 C90.90085938 34.55720703 90.90085938 34.55720703 92.234375 32.1328125 C98.00039533 21.70511132 103.80357927 11.30639426 110.09375 1.18359375 C110.56071289 0.41748779 111.02767578 -0.34861816 111.50878906 -1.13793945 C115.05502904 -6.75197447 118.56386875 -10.94422801 124.96875 -13.31640625 C130.42475003 -12.94013039 132.95352276 -9.92170162 136.59375 -6.06640625 C137.33625 -5.28265625 138.07875 -4.49890625 138.84375 -3.69140625 C142.56331689 1.88794409 145.52044645 7.7080486 145.1640625 14.5625 C143.37398648 22.00480237 137.34277437 28.30310597 132.83984375 34.2890625 C132.22345032 35.10908752 132.22345032 35.10908752 131.59460449 35.94567871 C130.59492268 37.27543728 129.59442313 38.60458102 128.59375 39.93359375 C130.00154551 39.9699506 130.00154551 39.9699506 131.43778133 40.00704193 C155.78864345 40.63707396 180.13811692 41.30816424 204.48696065 42.01170158 C207.24353229 42.09134988 210.00010661 42.17090485 212.75668144 42.2504425 C221.45282466 42.50141936 230.14895461 42.7528501 238.84506708 43.00488997 C248.75993086 43.29223886 258.67484037 43.57794089 268.5897904 43.86229753 C276.35646592 44.08514977 284.12309654 44.30952563 291.88969606 44.53501081 C296.48683731 44.66844293 301.08399399 44.80126653 305.68120003 44.93244934 C315.32877095 45.20815426 324.97581536 45.49519772 334.62227249 45.80758667 C337.12704212 45.88705803 339.63194579 45.96250272 342.13700485 46.03225708 C345.08859593 46.11492927 348.03911546 46.21359329 350.98999023 46.31835938 C351.77835549 46.33647423 352.56672075 46.35458908 353.37897587 46.37325287 C358.64333479 46.58807492 362.82801039 47.61945611 367.59375 49.93359375 C368.31404781 52.04056549 368.31404781 52.04056549 368.59375 53.93359375 C358.84626138 58.00981626 349.10410157 58.12590568 338.64648438 58.45922852 C337.41523582 58.50046372 336.18398727 58.54169893 334.91542816 58.58418369 C322.52867428 58.98810483 310.14124978 59.29906738 297.75 59.5234375 C295.94863838 59.55697988 295.94863838 59.55697988 294.11088562 59.59119987 C274.30114599 59.94487096 254.50751909 59.91774641 234.69617939 59.74693 C228.90189663 59.69790799 223.10766547 59.6631066 217.31323242 59.63778687 C216.48980819 59.63415402 215.66638395 59.63052118 214.81800747 59.62677824 C210.64224155 59.60882912 206.46647285 59.59268144 202.29069519 59.57773781 C193.75164647 59.54449837 185.21450149 59.47916621 176.67626953 59.35424805 C169.05038281 59.24287747 161.42645631 59.18807614 153.79973173 59.19981521 C149.81218807 59.20390588 145.82939897 59.18075818 141.84284973 59.08728218 C126.39976205 58.02168493 126.39976205 58.02168493 112.32046127 62.51167679 C108.83656077 66.2129786 106.84442884 70.29435794 105.23818493 75.07886982 C104.40717593 77.47056558 103.19190491 79.52776719 101.8515625 81.66796875 C87.83362312 107.59467413 77.31216719 135.32037593 70.53125 163.99609375 C70.32701416 164.8454248 70.12277832 165.69475586 69.91235352 166.56982422 C68.30499834 173.87941143 67.47540127 181.65117451 69.59375 188.93359375 C75.22072063 188.8163652 78.33765772 187.33123556 82.41796875 183.46484375 C90.63928574 173.90036726 95.96711075 162.56374462 100.59375 150.93359375 C108.19539868 132.3988784 118.52420883 113.19018316 137.140625 103.625 C145.59463645 100.09435071 154.8885975 99.19446724 163.59375 102.43359375 C168.20606775 104.77797625 170.39100297 108.37313257 172.59375 112.93359375 C173.20863281 111.88558594 173.20863281 111.88558594 173.8359375 110.81640625 C174.64417969 109.45128906 174.64417969 109.45128906 175.46875 108.05859375 C176.00242187 107.15367187 176.53609375 106.24875 177.0859375 105.31640625 C178.59375 102.93359375 178.59375 102.93359375 180.59375 100.93359375 C186.05423586 99.84149658 189.67537273 102.30463175 194.1171875 105.15625 C198.65568495 108.41337356 202.64655821 111.51299251 204.71875 116.80859375 C204.41371673 124.43442553 200.60532741 131.1450726 196.96875 137.68359375 C193.16401307 144.71445407 189.73688449 151.83273564 186.59375 159.18359375 C186.22040527 160.05209961 185.84706055 160.92060547 185.46240234 161.81542969 C182.67460886 168.43756695 180.28865968 174.57743583 180.46875 181.87109375 C180.48679687 182.82886719 180.50484375 183.78664062 180.5234375 184.7734375 C180.54664063 185.48628906 180.56984375 186.19914063 180.59375 186.93359375 C182.94122887 188.07595638 182.94122887 188.07595638 185.59375 188.93359375 C201.42947677 181.54358792 209.03355599 159.5260045 215.5246582 144.62280273 C223.30755722 127.03758658 234.68886624 111.79045708 252.59375 103.93359375 C256.23418263 102.72011621 259.61430186 102.71109655 263.40625 102.68359375 C264.10556641 102.66296875 264.80488281 102.64234375 265.52539062 102.62109375 C271.03337064 102.57987407 275.12263796 103.63042136 279.203125 107.43359375 C281.074515 109.89459977 282.8781457 112.36018729 284.59375 114.93359375 C284.91988281 114.24652344 285.24601562 113.55945313 285.58203125 112.8515625 C286.01902344 111.95050781 286.45601563 111.04945313 286.90625 110.12109375 C287.55013672 108.78111328 287.55013672 108.78111328 288.20703125 107.4140625 C290.51185345 103.29135237 290.51185345 103.29135237 292.59375 101.93359375 C300.58610494 102.26294904 307.90698017 107.7912487 313.28125 113.43359375 C315.39657016 115.7693839 315.60045014 116.99529392 315.94921875 120.20703125 C315.54737657 124.41975035 314.21936898 127.41900977 312.21875 131.05859375 C311.48261576 132.47043829 310.7483342 133.88324992 310.015625 135.296875 C309.62310547 136.04533691 309.23058594 136.79379883 308.82617188 137.56494141 C296.77403604 159.19997637 296.77403604 159.19997637 291.59375 182.93359375 C292.0784375 182.43730469 292.563125 181.94101563 293.0625 181.4296875 C296.44719117 177.99943318 299.85684597 174.62533751 303.46875 171.43359375 C304.12359375 170.84964844 304.7784375 170.26570312 305.453125 169.6640625 C307.59375 167.93359375 307.59375 167.93359375 310.109375 166.421875 C318.49325906 161.03761413 319.7929627 154.24885852 322.1796875 145.1171875 C326.71784488 127.8038937 336.28782566 109.90464835 351.96875 100.49609375 C356.96100969 97.92805893 361.03706354 96.9143199 366.59375 97.93359375 C368.07875 98.58328125 368.07875 98.58328125 369.59375 99.24609375 C373.26362102 100.08710586 373.75444668 99.48670789 376.84375 97.55859375 C381.81420914 94.49082302 385.85632857 94.05241981 391.59375 94.93359375 C397.35133319 96.88899936 400.72566041 100.50378126 403.5703125 105.7265625 C407.93216575 116.26431076 406.20706235 130.13034715 403.59375 140.93359375 C412.53356918 136.81148692 420.08440746 132.40231579 427.59375 125.93359375 C429.6953125 124.1796875 429.6953125 124.1796875 431.59375 122.93359375 C434.34375 123.24609375 434.34375 123.24609375 436.59375 123.93359375 C436.88367251 129.53876237 436.8742511 133.16195578 433.59375 137.93359375 C423.6119396 148.37869493 412.28971102 153.31760404 398.59375 156.93359375 C397.93375 156.93359375 397.27375 156.93359375 396.59375 156.93359375 C396.43084473 157.48104248 396.26793945 158.02849121 396.10009766 158.5925293 C394.29336239 164.3614141 391.94387262 169.49290024 388.96875 174.74609375 C388.53071045 175.52581543 388.0926709 176.30553711 387.64135742 177.10888672 C383.79566779 183.82274776 379.49475827 189.93630732 374.59375 195.93359375 C373.71976563 197.05314453 373.71976563 197.05314453 372.828125 198.1953125 C366.37836081 206.10682231 357.07146047 213.33929078 346.78125 214.74609375 C338.85276705 215.29288568 332.54559761 213.89764443 326.375 208.71875 C318.24811663 200.57404451 317.44189259 188.80455973 315.59375 177.93359375 C310.15827314 183.16912381 304.83953627 188.50814052 299.59375 193.93359375 C298.98208984 194.55733887 298.37042969 195.18108398 297.74023438 195.82373047 C291.02557237 202.80910461 291.02557237 202.80910461 288.11328125 211.859375 C288.33515396 215.66129549 288.85848756 219.20009445 289.59375 222.93359375 C293.51143152 247.20145428 293.44541595 280.5898459 278.71875 301.49609375 C273.32872921 307.87381469 266.86766811 314.23998604 258.296875 315.3671875 C250.17770844 315.37637208 242.30800307 315.10175131 235.94140625 309.47265625 C230.52567703 303.2877365 229.30910174 296.89912444 229.76953125 288.8671875 C232.37306796 266.17171092 243.81276858 239.15892407 259.22900391 222.12695312 C262.73252455 218.14693728 263.98866928 215.48892591 263.9609375 210.12109375 C263.82941962 208.05626305 263.66466812 205.9933119 263.46875 203.93359375 C263.35660156 202.34224609 263.35660156 202.34224609 263.2421875 200.71875 C263.05489324 198.12004214 262.83819985 195.52744278 262.59375 192.93359375 C262.13226563 193.56265625 261.67078125 194.19171875 261.1953125 194.83984375 C253.87592529 204.44473132 245.5475527 212.82969955 233.21875 214.74609375 C225.75253737 215.3566188 219.43951644 213.71649357 213.59375 208.93359375 C208.55645238 204.01623178 206.70856115 198.57339187 204.59375 191.93359375 C203.77583984 192.98546875 203.77583984 192.98546875 202.94140625 194.05859375 C196.63696553 201.99033456 190.19599535 210.01765975 180.59375 213.93359375 C176.9375 214.33203125 176.9375 214.33203125 173.09375 214.30859375 C171.8253125 214.31632813 170.556875 214.3240625 169.25 214.33203125 C163.76902081 213.73474506 160.63075158 212.01773177 156.84375 208.05859375 C153.01304258 202.73816678 152.24407913 198.32849688 151.59375 191.93359375 C148.83059103 194.61548333 146.33002129 197.26777054 143.96875 200.30859375 C138.40076505 206.90074174 129.98550851 211.9431591 121.42578125 213.26953125 C114.17686319 213.40974243 107.21871934 211.7940241 101.4453125 207.23828125 C96.84749453 202.44646253 94.97520737 197.35408135 93.59375 190.93359375 C93.21863281 191.44148437 92.84351563 191.949375 92.45703125 192.47265625 C78.83103188 210.80082669 78.83103188 210.80082669 68.59375 212.93359375 C63.26399783 213.4411892 59.72088542 213.19836276 55.19140625 210.2578125 C47.83190436 204.15788306 45.66278136 194.84634423 43.59375 185.93359375 C43.06007812 186.75601563 42.52640625 187.5784375 41.9765625 188.42578125 C27.82162876 209.81581634 27.82162876 209.81581634 15.59375 212.93359375 C10.26238662 213.76509079 6.10922963 212.9439135 1.59375 209.93359375 C-8.63928208 199.70056167 -9.58869322 186.09224756 -9.71875 172.30859375 C-9.55662608 133.88522512 7.6411747 94.83874436 24.59375 60.93359375 C21.62375 60.93359375 18.65375 60.93359375 15.59375 60.93359375 C15.39330078 61.52148682 15.19285156 62.10937988 14.98632812 62.71508789 C0.22689097 105.61702326 0.22689097 105.61702326 -14.40625 112.93359375 C-16.46875 113.87109375 -16.46875 113.87109375 -18.40625 113.93359375 C-24.65488783 111.5692443 -28.67135159 105.12945923 -31.7421875 99.47265625 C-34.68387182 92.85908229 -36.04350384 86.39249783 -33.48828125 79.43359375 C-31.41184377 75.13288182 -28.91028866 71.11954764 -26.40625 67.05859375 C-19.36613389 55.54336508 -16.12612198 44.44115146 -17.40625 30.93359375 C-19.51650253 23.76062775 -22.990807 19.61653325 -29.40625 15.93359375 C-35.27297532 13.97801864 -42.00130704 13.92807338 -47.71875 16.43359375 C-57.84401971 22.44676413 -60.3019324 34.10509615 -63.16015625 44.73828125 C-65.2066334 53.69698542 -64.69083911 62.25224817 -63.21875 71.24609375 C-63.11796143 71.89650635 -63.01717285 72.54691895 -62.91333008 73.21704102 C-60.49311719 86.68385522 -54.27837279 98.51223609 -47.93676758 110.45950317 C-40.44355993 124.61211012 -33.27981881 138.63345233 -28.40625 153.93359375 C-28.18598145 154.58424805 -27.96571289 155.23490234 -27.73876953 155.90527344 C-22.34686658 171.84690881 -21.50606852 187.79040369 -28.96875 203.12109375 C-36.32355568 217.34836748 -46.30759298 225.26275693 -61.44921875 230.171875 C-81.44068641 235.32159256 -106.95418741 232.84444774 -124.8515625 222.5234375 C-127.11960829 221.08188297 -129.26541182 219.55726316 -131.40625 217.93359375 C-132.09460938 217.42183594 -132.78296875 216.91007813 -133.4921875 216.3828125 C-144.66890151 207.41146543 -150.18736805 193.72529841 -152.0234375 179.76953125 C-153.24633375 167.51561169 -152.70034706 155.12230373 -145.0546875 144.921875 C-144.51070312 144.26574219 -143.96671875 143.60960937 -143.40625 142.93359375 C-142.90351563 142.30839844 -142.40078125 141.68320313 -141.8828125 141.0390625 C-135.88553034 134.32503198 -127.59083871 130.00078073 -118.65625 128.93359375 C-113.1577997 128.7111131 -108.22963227 129.25721053 -103.40625 132.12109375 C-101.61857486 135.36125494 -101.82392157 137.26492461 -102.40625 140.93359375 C-103.94039162 143.48167954 -105.67037033 145.80621126 -107.45703125 148.18359375 C-116.02220358 160.26752425 -119.27660244 173.3312067 -117.40625 187.93359375 C-115.01755334 196.0920467 -110.85939298 201.8314763 -103.40625 205.93359375 C-94.36175466 210.64271116 -83.99765751 211.39443498 -74.15625 208.80859375 C-66.08250249 206.05676984 -59.74361095 200.6713173 -55.95703125 192.99609375 C-55.34408203 191.48015625 -55.34408203 191.48015625 -54.71875 189.93359375 C-54.30238281 188.92296875 -53.88601562 187.91234375 -53.45703125 186.87109375 C-48.77099764 173.77110389 -51.49800161 161.29801638 -57.171875 149.0859375 C-62.4592606 138.03061589 -68.67673718 127.6728856 -75.83862305 117.73583984 C-91.40165291 96.12065524 -100.32934511 74.11120618 -96.91015625 47 C-93.24995443 28.45084162 -83.39643997 7.89900266 -67.40625 -3.06640625 C-44.8667141 -16.44572408 -20.65037729 -17.73384673 0 0 Z M48.59375 79.93359375 C47.88479738 81.31107626 47.16696845 82.68405243 46.4375 84.05078125 C44.73978896 87.25775284 43.15627995 90.50578686 41.61083984 93.78857422 C40.51986699 96.08941135 39.39411356 98.37166909 38.26953125 100.65625 C26.83109073 124.36101738 10.79354302 159.132134 14.59375 185.93359375 C16.25863146 189.168605 16.25863146 189.168605 19.21875 189.55859375 C27.48107703 188.02853319 33.03377466 179.46405618 37.59375 172.93359375 C38.20476562 172.10730469 38.81578125 171.28101563 39.4453125 170.4296875 C44.15571168 163.38413297 45.61916936 156.79246621 46.98095703 148.60473633 C51.70659101 121.03693564 63.35861743 94.366725 75.24145508 69.21826172 C75.68126709 68.28643066 76.1210791 67.35459961 76.57421875 66.39453125 C76.96504639 65.57774902 77.35587402 64.7609668 77.75854492 63.91943359 C78.72297904 61.98538468 78.72297904 61.98538468 78.59375 59.93359375 C60.25443908 56.26573157 55.90845605 64.23501934 48.59375 79.93359375 Z M377.59375 119.93359375 C375.59537215 123.93034945 375.21431655 127.46493041 375.9140625 131.90234375 C377.15534954 135.61193719 379.65386141 138.41055504 382.59375 140.93359375 C383.58375 141.26359375 384.57375 141.59359375 385.59375 141.93359375 C387.94707532 134.69151524 389.78714622 127.58159532 388.59375 119.93359375 C386.94523243 117.19169541 386.94523243 117.19169541 384.59375 115.93359375 C381.32113062 115.93359375 379.90183001 117.74091774 377.59375 119.93359375 Z M140.59375 136.93359375 C131.74048544 150.7179249 121.24729684 168.8909039 121.34375 185.74609375 C121.33859375 186.66003906 121.3334375 187.57398438 121.328125 188.515625 C121.43448354 191.19359632 121.43448354 191.19359632 123.59375 193.93359375 C127.5114852 194.46098118 129.94076865 194.23924459 133.53125 192.55859375 C145.38866744 183.46163328 152.28599514 167.43459647 158.03125 154.05859375 C158.52625 152.91886108 158.52625 152.91886108 159.03125 151.75610352 C162.39306487 143.6460768 164.57756238 135.63184805 162.59375 126.93359375 C161.50700006 124.84375144 161.50700006 124.84375144 159.59375 123.93359375 C151.33453033 122.37103868 144.9332432 131.05031624 140.59375 136.93359375 Z M253.3359375 136.9140625 C242.81964921 152.1339831 231.39190618 173.00455356 232.59375 191.93359375 C233.52618871 194.51311059 233.52618871 194.51311059 235.59375 195.93359375 C238.69984928 196.65594242 240.6320604 196.42538947 243.48046875 194.96875 C259.52285744 184.09522525 269.23916373 160.15557854 274.03125 141.99609375 C275.11689329 136.28275887 274.8412964 130.80491335 271.59375 125.93359375 C263.00852183 124.00629763 258.059165 130.67907533 253.3359375 136.9140625 Z M361.59375 126.93359375 C358.09377463 130.81661364 355.89707731 134.92852125 353.71875 139.62109375 C353.37432861 140.35932373 353.02990723 141.09755371 352.67504883 141.8581543 C341.85193226 165.21326482 341.85193226 165.21326482 341.16796875 189.97265625 C342.50650468 193.41460579 343.4748088 194.85429961 346.59375 196.93359375 C353.33092624 196.93359375 357.64760186 192.64957407 362.34375 188.3203125 C369.12073536 181.24526529 380.59375 164.98720927 380.59375 154.93359375 C378.9683721 153.74508094 378.9683721 153.74508094 376.90625 152.62109375 C369.4422546 148.06634523 366.10727397 143.24079046 363.59375 134.93359375 C363.07285109 132.23794187 362.79707107 129.67842813 362.59375 126.93359375 C362.26375 126.93359375 361.93375 126.93359375 361.59375 126.93359375 Z M267.59375 237.93359375 C261.79083083 246.47603058 257.12081352 255.63896857 252.65625 264.93359375 C252.18396973 265.91207275 251.71168945 266.89055176 251.22509766 267.89868164 C247.82425535 275.09201205 245.31420117 281.55547015 245.21875 289.62109375 C245.19039063 290.71808594 245.16203125 291.81507813 245.1328125 292.9453125 C245.69332009 296.57911171 246.75646281 297.68169481 249.59375 299.93359375 C253.10502563 301.68923156 256.85598364 300.73965119 260.59375 299.93359375 C266.07893776 297.06633651 268.37092649 291.48210321 270.59375 285.93359375 C274.20353328 270.89923039 272.41708386 252.79452835 268.59375 237.93359375 C268.26375 237.93359375 267.93375 237.93359375 267.59375 237.93359375 Z " fill="#000000" transform="translate(160.40625,49.06640625)"/>
</svg>
